<?xml version="1.0" encoding="utf-8"?>
<!-- Generator: Adobe Illustrator 23.0.4, SVG Export Plug-In . SVG Version: 6.00 Build 0)  -->
<svg version="1.1" id="Capa_1" xmlns="http://www.w3.org/2000/svg" xmlns:xlink="http://www.w3.org/1999/xlink" x="0px" y="0px"
	 viewBox="0 0 100 200" style="enable-background:new 0 0 100 200;" xml:space="preserve">
<g>
	<path d="M2.05,151.23c3.55,0.51,6.25-0.34,8.28-3.04c1.01-1.18,1.52-3.21,1.52-6.08V43.75h18.25v101.22
		c0,6.76-1.69,13.01-5.91,17.57c-4.22,4.56-11.32,7.27-22.14,6.59V151.23z"/>
	<path d="M34.13,44.4h18.25v107.31l10.7,0.07v16.81l-28.95,0.02V44.4z"/>
	<path d="M55.71,148.04V44.41H69.1c9.02,0,16.07,1.69,20.72,6.06c4.65,4.37,7.05,11.14,7.05,21.43c0,4.93-0.42,8.6-1.97,11.98
		c-1.55,3.38-3.95,6.2-7.47,9.45c3.81,2.11,6.63,6.06,8.88,12.69c1.13,3.24,1.69,7.47,1.69,12.69c0,7.75-1.41,14.66-4.93,20.02
		c-3.52,5.36-9.59,8.88-18.61,9.3H55.71z M70.93,87.13c1.27,0,4.23,0.14,6.77-1.55c2.54-1.69,4.51-5.08,4.51-12.27
		c0-7.19-1.97-10.57-4.51-12.27c-2.54-1.69-5.5-1.55-6.77-1.55V87.13z M70.93,132.95c1.27,0,4.23,0.28,6.77-1.55
		c2.54-1.83,4.51-5.92,4.51-14.38c0-8.46-1.97-12.55-4.51-14.38c-2.54-1.83-5.5-1.55-6.77-1.55V132.95z"/>
</g>
</svg>
